<?xml version="1.0" standalone="no"?>
<!DOCTYPE svg PUBLIC "-//W3C//DTD SVG 20010904//EN"
 "http://www.w3.org/TR/2001/REC-SVG-20010904/DTD/svg10.dtd">
<svg version="1.0" xmlns="http://www.w3.org/2000/svg"
 width="675.000000pt" height="675.000000pt" viewBox="0 0 675.000000 675.000000"
 preserveAspectRatio="xMidYMid meet">
<metadata>
Created by potrace 1.11, written by Peter Selinger 2001-2013
</metadata>
<g transform="translate(0.000000,675.000000) scale(0.100000,-0.100000)"
fill="#000000" stroke="none">
<path d="M2090 6703 c-19 -2 -233 -4 -475 -6 -242 -2 -453 -7 -470 -11 -16 -3
-39 -8 -51 -11 -12 -3 -39 -7 -60 -11 -103 -16 -375 -125 -425 -170 -8 -8 -19
-14 -24 -14 -19 0 -159 -117 -230 -192 -76 -80 -131 -155 -180 -241 -24 -44
-81 -179 -91 -216 -9 -33 -42 -198 -49 -241 -7 -46 -11 -553 -20 -2525 -2
-610 -6 -1222 -7 -1360 -3 -341 4 -434 57 -705 11 -58 71 -228 102 -294 70
-144 187 -294 307 -394 40 -34 152 -105 211 -134 67 -34 216 -84 290 -97 82
-15 104 -19 150 -27 22 -4 1023 -9 2225 -10 2370 -3 2259 -6 2455 51 363 105
654 339 810 652 44 88 88 212 99 274 31 184 31 193 30 2349 -1 1185 -4 2180
-8 2211 -37 308 -165 574 -370 773 -161 156 -344 258 -551 306 -108 26 -126
28 -224 35 -80 6 -3423 13 -3501 8z"/>
</g>
</svg>
